# xmcd
#
# Track frame offsets:
#	150
#	20147
#	35201
#	51493
#	69162
#	86980
#	105288
#	126668
#	145384
#	167967
#	187447
#	206022
#
# Disc length: 2979 seconds
#
# Revision: 0
# Processed by: cddbd v1.5.1PL0 Copyright (c) Steve Scherf et al.
# Submitted via: dBpowerAMP V4.0
#
DISCID=c50ba10c
DTITLE=Mase - Welcome Back
DYEAR=1900
DGENRE=Rap
TTITLE0=Welcome Back
TTITLE1=Keep Dreamin
TTITLE2=We Don't Have To
TTITLE3=I Love Twyla
TTITLE4=My Harlem Lullaby
TTITLE5=Wasting My Time
TTITLE6=Gotta Survive
TTITLE7=The Love U Need
TTITLE8=I Still Love You
TTITLE9=Do U Remember
TTITLE10=Into What U Say
TTITLE11=I Owe
EXTD=
EXTT0=
EXTT1=
EXTT2=
EXTT3=
EXTT4=
EXTT5=
EXTT6=
EXTT7=
EXTT8=
EXTT9=
EXTT10=
EXTT11=
PLAYORDER=
